<svg xmlns="http://www.w3.org/2000/svg" viewBox="0 0 1200 300">
<style>.o{stroke:#163d27;stroke-width:8;stroke-linecap:round;stroke-linejoin:round}.g{fill:#163d27}.c{fill:#f4f1e8}.w{fill:#fff}.gold{fill:#d5a62e}.pink{fill:#e8b9ad}.black{fill:#252525}.txt{font:700 18px system-ui;fill:#163d27}</style>
<!-- Kaninus -->
<g transform="translate(20 15)"><ellipse class="c o" cx="110" cy="145" rx="67" ry="76"/><ellipse class="c o" cx="75" cy="50" rx="22" ry="55" transform="rotate(-15 75 50)"/><ellipse class="c o" cx="135" cy="48" rx="22" ry="58" transform="rotate(13 135 48)"/><circle class="w o" cx="87" cy="125" r="8"/><circle class="w o" cx="130" cy="125" r="8"/><path class="pink o" d="M100 145l12-7 12 7-12 10z"/><path class="g o" d="M45 185q65 35 130 0v34q-65 25-130 0z"/><path class="w o" d="M145 178l70-25 12 70-70 22z"/><path class="o" fill="none" d="M166 178l35 43m-50-18l66-20"/><text class="txt" x="55" y="282">KANINUS · kortet er vendt forkert</text></g>
<!-- Gorilla -->
<g transform="translate(255 20)"><circle class="black o" cx="110" cy="112" r="75"/><ellipse fill="#6c625a" class="o" cx="110" cy="125" rx="48" ry="42"/><circle class="w o" cx="88" cy="100" r="8"/><circle class="w o" cx="132" cy="100" r="8"/><path class="w o" d="M82 142q28 28 57 0q-28 14-57 0"/><path class="black o" d="M48 174q-30 60 10 72h105q35-20 5-72"/><rect class="g o" x="132" y="174" width="72" height="48" rx="9"/><circle class="w o" cx="168" cy="198" r="15"/><path class="o" fill="none" d="M151 174l12-24h25l10 24"/><text class="txt" x="35" y="277">GORILLA · dokumenterer alt</text></g>
<!-- King -->
<g transform="translate(490 18)"><circle fill="#d69b72" class="o" cx="110" cy="118" r="62"/><path class="gold o" d="M53 72l15-52 35 29 25-38 25 40 37-26 5 55z"/><circle class="w o" cx="88" cy="110" r="7"/><circle class="w o" cx="132" cy="110" r="7"/><path class="o" fill="none" d="M83 140q27 22 55 0"/><path fill="#b66c42" class="o" d="M63 145q47 60 94 0q-9 65-47 65t-47-65"/><path class="g o" d="M42 205h140l30 45H15z"/><circle class="gold o" cx="112" cy="222" r="13"/><text class="txt" x="47" y="280">KING · naturligvis VIP</text></g>
<!-- Pingvinus -->
<g transform="translate(725 20)"><ellipse class="black o" cx="108" cy="142" rx="72" ry="100"/><ellipse class="w o" cx="108" cy="157" rx="48" ry="69"/><circle class="w o" cx="82" cy="98" r="9"/><circle class="w o" cx="130" cy="98" r="9"/><path fill="#e5a52c" class="o" d="M91 117l55 12-49 20z"/><path class="g o" d="M45 165q62 28 126 0v27q-64 28-126 0z"/><circle class="black o" cx="76" cy="70" r="20"/><circle class="black o" cx="142" cy="70" r="20"/><path class="o" fill="none" d="M96 70h26m-66 0l-23-15m129 15l23-15"/><text class="txt" x="25" y="280">PINGVINUS · spotter næste stadion</text></g>
<!-- Kardinalus -->
<g transform="translate(955 12)"><circle fill="#e1ad83" class="o" cx="108" cy="120" r="58"/><path class="w o" d="M55 78q53-95 106 0l-20 13H72z"/><path class="gold o" d="M108 17v58m-20-35h40"/><circle class="black o" cx="87" cy="116" r="8"/><circle class="black o" cx="130" cy="116" r="8"/><path class="o" fill="none" d="M86 145q24 18 48 0"/><path class="w o" d="M48 174q60-35 120 0l28 78H20z"/><path class="gold o" d="M108 177v67m-17-45h34"/><circle class="gold o" cx="178" cy="193" r="23"/><path class="o" fill="none" d="M178 216v42"/><text class="txt" x="12" y="286">KARDINALUS · velsigner udebanen</text></g>
</svg>